<svg version="1.1" id="Layer_1" xmlns="http://www.w3.org/2000/svg" xmlns:xlink="http://www.w3.org/1999/xlink" x="0px" y="0px"
	 width="100%" viewBox="0 0 93 65" enable-background="new 0 0 93 65" xml:space="preserve">
<path fill="#FFFFFF" opacity="1.000000" stroke="none" 
	d="
M61.000000,66.000000 
	C40.666668,66.000000 20.833334,66.000000 1.000000,66.000000 
	C1.000000,44.333332 1.000000,22.666666 1.000000,1.000000 
	C32.000000,1.000000 63.000000,1.000000 94.000000,1.000000 
	C94.000000,22.666666 94.000000,44.333332 94.000000,66.000000 
	C83.166664,66.000000 72.333336,66.000000 61.000000,66.000000 
M55.392868,57.003235 
	C56.059116,57.003048 56.725414,57.008095 57.391605,57.001907 
	C71.514595,56.870697 82.005821,46.630978 82.000473,32.984364 
	C81.995125,19.345287 71.452522,9.065679 57.360310,9.003634 
	C49.365623,8.968435 41.370571,8.973587 33.375835,9.002567 
	C20.153248,9.050498 9.994978,19.506962 9.997266,33.029007 
	C9.999549,46.517662 20.189157,56.951584 33.433842,56.998463 
	C40.429241,57.023220 47.424797,57.003117 55.392868,57.003235 
z"/>
<path fill="#B1B1B1" opacity="1.000000" stroke="none" 
	d="
M54.906578,57.003254 
	C47.424797,57.003117 40.429241,57.023220 33.433842,56.998463 
	C20.189157,56.951584 9.999549,46.517662 9.997266,33.029007 
	C9.994978,19.506962 20.153248,9.050498 33.375835,9.002567 
	C41.370571,8.973587 49.365623,8.968435 57.360310,9.003634 
	C71.452522,9.065679 81.995125,19.345287 82.000473,32.984364 
	C82.005821,46.630978 71.514595,56.870697 57.391605,57.001907 
	C56.725414,57.008095 56.059116,57.003048 54.906578,57.003254 
M44.388271,15.916305 
	C33.576820,10.236053 22.125217,13.299006 16.411741,23.399168 
	C11.276324,32.477451 14.417946,44.259876 23.508274,50.014194 
	C32.436146,55.665676 44.368637,53.159275 50.411129,44.363289 
	C56.836891,35.009384 54.603939,23.425167 44.388271,15.916305 
z"/>
<path fill="#FEFEFE" opacity="1.000000" stroke="none" 
	d="
M44.698334,16.125511 
	C54.603939,23.425167 56.836891,35.009384 50.411129,44.363289 
	C44.368637,53.159275 32.436146,55.665676 23.508274,50.014194 
	C14.417946,44.259876 11.276324,32.477451 16.411741,23.399168 
	C22.125217,13.299006 33.576820,10.236053 44.698334,16.125511 
z"/>
</svg>